<svg width="82" height="82" viewBox="0 0 82 82" fill="none" xmlns="http://www.w3.org/2000/svg">
<g id="contacts">
<g id="Vector">
<path d="M52.6027 32.1893C59.3351 34.7537 64.7661 38.8333 68.7971 44.6632C69.3985 45.5384 69.8636 46.9264 69.6099 47.8628C69.3562 48.7991 68.2333 49.7449 67.2608 50.1402C65.9172 50.6578 64.6863 49.919 63.85 48.6956C61.1455 44.6925 57.4322 41.4768 53.0867 39.3744C47.1887 36.4869 40.4622 35.7777 34.0932 37.372C27.7242 38.9663 22.1217 42.7616 18.2737 48.0886C17.6521 48.994 16.7962 49.7129 15.7978 50.1684C14.5387 50.6389 13.2608 50.1684 12.448 48.9497C12.0495 48.4069 11.8393 47.7483 11.8495 47.0746C11.8597 46.4008 12.0897 45.7489 12.5044 45.2184C16.1499 39.7721 21.2983 35.5051 27.3222 32.9375C27.9377 32.6693 28.5578 32.4058 29.3753 32.0623C24.4047 27.517 22.2436 21.9929 23.1174 15.4572C23.6974 11.0626 25.9328 7.05626 29.3659 4.25852C32.85 1.32412 37.3092 -0.189391 41.8567 0.0189788C46.4042 0.227349 50.7068 2.14234 53.9088 5.38309C60.2748 11.8294 61.7312 23.8421 52.6027 32.1893ZM40.9468 29.7708C42.4812 29.792 44.0045 29.5077 45.4283 28.9343C46.8521 28.361 48.148 27.5101 49.2407 26.431C50.3335 25.3519 51.2013 24.0662 51.7937 22.6484C52.3862 21.2306 52.6915 19.7091 52.692 18.1722C52.7034 15.0693 51.4902 12.0876 49.3168 9.87646C47.1433 7.66528 44.1856 6.40372 41.0877 6.3665C37.9895 6.37254 35.0185 7.60144 32.819 9.78674C30.6195 11.972 29.3686 14.9376 29.3377 18.0404C29.3216 19.5767 29.61 21.1008 30.1864 22.5246C30.7628 23.9483 31.6157 25.2433 32.6955 26.3344C33.7754 27.4256 35.0608 28.2912 36.4772 28.8811C37.8936 29.471 39.4128 29.7734 40.9468 29.7708Z" fill="#495AEF"/>
<path d="M52.6027 32.1893C59.3351 34.7537 64.7661 38.8333 68.7971 44.6632C69.3985 45.5384 69.8636 46.9264 69.6099 47.8628C69.3562 48.7991 68.2333 49.7449 67.2608 50.1402C65.9172 50.6578 64.6863 49.919 63.85 48.6956C61.1455 44.6925 57.4322 41.4768 53.0867 39.3744C47.1887 36.4869 40.4622 35.7777 34.0932 37.372C27.7242 38.9663 22.1217 42.7616 18.2737 48.0886C17.6521 48.994 16.7962 49.7129 15.7978 50.1684C14.5387 50.6389 13.2608 50.1684 12.448 48.9497C12.0495 48.4069 11.8393 47.7483 11.8495 47.0746C11.8597 46.4008 12.0897 45.7489 12.5044 45.2184C16.1499 39.7721 21.2983 35.5051 27.3222 32.9375C27.9377 32.6693 28.5578 32.4058 29.3753 32.0623C24.4047 27.517 22.2436 21.9929 23.1174 15.4572C23.6974 11.0626 25.9328 7.05626 29.3659 4.25852C32.85 1.32412 37.3092 -0.189391 41.8567 0.0189788C46.4042 0.227349 50.7068 2.14234 53.9088 5.38309C60.2748 11.8294 61.7312 23.8421 52.6027 32.1893ZM40.9468 29.7708C42.4812 29.792 44.0045 29.5077 45.4283 28.9343C46.8521 28.361 48.148 27.5101 49.2407 26.431C50.3335 25.3519 51.2013 24.0662 51.7937 22.6484C52.3862 21.2306 52.6915 19.7091 52.692 18.1722C52.7034 15.0693 51.4902 12.0876 49.3168 9.87646C47.1433 7.66528 44.1856 6.40372 41.0877 6.3665C37.9895 6.37254 35.0185 7.60144 32.819 9.78674C30.6195 11.972 29.3686 14.9376 29.3377 18.0404C29.3216 19.5767 29.61 21.1008 30.1864 22.5246C30.7628 23.9483 31.6157 25.2433 32.6955 26.3344C33.7754 27.4256 35.0608 28.2912 36.4772 28.8811C37.8936 29.471 39.4128 29.7734 40.9468 29.7708Z" fill="url(#paint0_linear_2108_677)" fill-opacity="0.2"/>
</g>
<path id="Vector_2" d="M27.2236 66.7782C26.8749 67.3233 26.4616 67.8241 25.9927 68.2698C24.8417 69.2108 23.592 70.039 22.3846 70.9142C20.6463 72.1752 20.5053 72.6269 21.2147 74.6784C21.6845 76.0383 22.1825 77.3887 22.6242 78.7485C22.9624 79.7649 23.0611 80.7671 22.0463 81.4917C21.0315 82.2164 20.1671 81.9623 19.2603 81.2988C17.9777 80.3578 16.6435 79.4543 15.3797 78.4756C14.2005 77.5675 13.1105 77.5346 11.9125 78.4756C10.7145 79.4167 9.38491 80.2589 8.15401 81.1953C7.1674 81.9482 6.17611 82.2964 5.10964 81.4494C4.04317 80.6024 4.33445 79.5673 4.71029 78.5321C5.22239 77.0734 5.64992 75.5913 6.20899 74.1514C6.45371 73.6399 6.49727 73.0548 6.33102 72.5126C6.16476 71.9703 5.80086 71.5106 5.31165 71.2247C3.92101 70.2366 2.53508 69.2422 1.15383 68.2415C0.256494 67.5922 -0.255603 66.7594 0.129642 65.6301C0.514886 64.5008 1.36524 64.0961 2.50219 64.1056C4.2123 64.1056 5.91771 64.0726 7.62312 64.1056C8.92919 64.1432 9.71378 63.635 10.0708 62.3411C10.489 60.8024 11.0621 59.3061 11.5413 57.7816C11.8749 56.7182 12.4293 55.9795 13.6696 55.9983C14.83 55.9983 15.3609 56.737 15.6757 57.7298C16.1455 59.1414 16.6435 60.553 17.0193 61.9929C17.414 63.5127 18.2361 64.2232 19.8711 64.115C21.506 64.0067 23.1598 64.0632 24.8323 64.115C26.3216 64.1526 27.2518 65.056 27.2236 66.7782Z" fill="#E83B3A"/>
<path id="Vector_3" d="M68.3649 77.6098C67.8541 77.8243 67.3582 78.0727 66.8803 78.3532C65.4192 79.3555 64.0098 80.3859 62.6004 81.4211C61.7218 82.061 60.6835 82.2445 59.9976 81.4211C59.7394 81.0837 59.5511 80.698 59.4438 80.2868C59.3365 79.8755 59.3123 79.4468 59.3728 79.0261C59.8163 77.3292 60.3655 75.6618 61.0171 74.0337C61.2404 73.542 61.2742 72.985 61.112 72.4699C60.9498 71.9548 60.6031 71.5179 60.1386 71.2435C58.7291 70.2506 57.3667 69.2484 55.9807 68.2603C55.0834 67.6157 54.5102 66.7969 54.8861 65.6677C55.2619 64.5384 56.1734 64.0584 57.3761 64.082C59.1379 64.1102 60.895 64.082 62.6567 64.082C63.1368 64.1363 63.6198 64.0084 64.0103 63.7235C64.4008 63.4387 64.6705 63.0176 64.7662 62.5433C65.236 60.9059 65.8139 59.3013 66.3448 57.6827C66.6642 56.6852 67.2233 55.9935 68.379 55.9888C69.5348 55.9841 70.1079 56.6617 70.4368 57.6592C70.9677 59.2919 71.5268 60.8965 71.9966 62.5339C72.088 63.0093 72.3537 63.4333 72.7415 63.7224C73.1292 64.0114 73.611 64.1448 74.0919 64.0961C75.802 64.0961 77.5075 64.129 79.2129 64.0961C80.4579 64.0678 81.4586 64.4113 81.8814 65.6629C82.3042 66.9146 81.5337 67.7709 80.5612 68.4579C79.2974 69.3519 78.0571 70.2695 76.8027 71.1494C75.694 71.921 75.3134 72.8621 75.8255 74.1796C76.4767 75.7017 77 77.2756 77.39 78.8849C77.5454 79.7799 77.3411 80.7 76.8215 81.4446C76.098 82.3245 75.0128 82.0516 74.0919 81.3693C72.7248 80.353 71.3388 79.3555 69.9294 78.3956C69.4289 78.0937 68.9058 77.831 68.3649 77.6098Z" fill="#E83B3A"/>
<path id="Vector_4" d="M32.6638 52.8598C37.3619 52.8175 36.7277 53.3915 38.2029 48.785C38.4942 47.8722 38.6727 46.8747 39.1425 46.0889C39.509 45.5054 40.3358 44.8373 40.9278 44.8655C41.3273 44.9146 41.71 45.0552 42.0465 45.2763C42.383 45.4974 42.6641 45.7932 42.8681 46.1406C43.5529 47.7012 44.0969 49.32 44.4937 50.9777C44.8789 52.4222 45.7152 52.9634 47.1622 52.8975C48.8112 52.8269 50.4509 52.8975 52.1187 52.8975C53.2274 52.8975 54.1389 53.2363 54.4677 54.4079C54.6333 54.8927 54.6249 55.4201 54.4439 55.8994C54.263 56.3786 53.9209 56.7797 53.4764 57.0335C52.067 57.9981 50.7234 59.0521 49.3233 60.0261C48.2381 60.7789 47.9844 61.7388 48.4119 62.9481C49.0429 64.5286 49.5794 66.1454 50.0186 67.7898C50.1407 68.6219 49.9352 69.4688 49.4455 70.1519C48.783 71.0036 47.7495 70.8671 46.8615 70.2272C45.4756 69.2297 44.0661 68.2698 42.7131 67.2299C41.5151 66.2888 40.4204 66.3406 39.2365 67.2581C37.9774 68.2416 36.6525 69.1403 35.3606 70.0813C34.4679 70.726 33.5471 71.0224 32.5746 70.2648C31.6021 69.5073 31.5645 68.6321 31.9826 67.5546C32.5182 66.1665 32.8659 64.6984 33.4484 63.3198C34.1437 61.6917 33.6974 60.586 32.2739 59.659C30.9819 58.8168 29.7745 57.8381 28.5154 56.9676C27.5382 56.2994 27.0778 55.3066 27.6228 54.3655C28.1521 53.6394 28.9211 53.1243 29.7933 52.9116C30.6906 52.6857 31.7007 52.8598 32.6638 52.8598Z" fill="#E83B3A"/>
</g>
<defs>
<linearGradient id="paint0_linear_2108_677" x1="40.7649" y1="3.62429e-06" x2="68.3329" y2="6.55622" gradientUnits="userSpaceOnUse">
<stop stop-opacity="0.58"/>
<stop offset="1" stop-opacity="0"/>
</linearGradient>
</defs>
</svg>
