<svg width="71" height="71" viewBox="0 0 71 71" fill="none" xmlns="http://www.w3.org/2000/svg">
<g clip-path="url(#clip0_2108_742)">
<path d="M6.90929 14.1278L13.7158 7.16403C13.9149 8.04177 13.902 9.02921 14.2359 9.16474C14.724 9.37127 15.4624 8.9647 16.3807 8.75818C16.5141 8.88017 16.6716 8.97252 16.843 9.02923C17.2347 9.1454 17.7869 9.35839 18.0245 9.19058C18.2621 9.02278 18.2621 8.42901 18.3456 8.01596C18.4291 7.6029 18.3456 7.03496 18.6217 6.72517C19.6684 5.48601 19.6234 5.20204 17.8704 4.59537C22.537 1.85202 27.7921 0.278083 33.1916 0.0065918V33.0831H0C0.584336 30.2628 1.05308 27.565 1.7209 24.9253C2.09975 23.428 2.92167 22.0469 3.32621 20.5625C3.73075 19.078 4.95721 18.8457 6.00387 18.31C6.22862 18.1939 6.646 18.594 7.04412 18.6714C7.44223 18.7489 7.90458 18.8715 8.14217 18.6714C8.37976 18.4714 8.37978 17.9873 8.44399 17.6195C8.47061 17.1848 8.53288 16.753 8.63019 16.3287C8.84553 15.8643 9.09671 15.4176 9.38147 14.9927C8.88061 14.7668 8.37977 14.5409 7.87249 14.3473C7.55547 14.2572 7.23396 14.184 6.90929 14.1278ZM27.8683 19.22C28.1123 18.6327 28.5104 18.1745 28.4077 17.8131C28.2472 17.0515 28.2343 16.5223 28.9599 15.9995C29.0981 15.8782 29.2047 15.7249 29.2708 15.5528C29.3368 15.3808 29.3601 15.1952 29.3388 15.0121C29.2296 14.7216 28.7416 14.5861 28.4334 14.3667C27.9315 14.0993 27.4708 13.7601 27.0657 13.3598C26.4878 12.6112 25.8649 12.4563 25.4667 13.3147C25.3639 13.6363 25.1613 13.9163 24.8886 14.1137C24.6159 14.3112 24.2874 14.4156 23.9513 14.4118C22.9304 14.4957 22.6671 15.2702 23.412 15.935C23.6994 16.1243 23.9135 16.407 24.0187 16.7359C24.1238 17.0647 24.1137 17.4199 23.9899 17.7421C23.9064 18.0196 24.7476 18.8715 24.7797 18.8521C25.7557 18.2197 26.6868 18.1809 27.8683 19.22ZM26.1924 8.61617C26.3247 8.69978 26.4645 8.77108 26.6098 8.82916C27.0913 8.98406 27.5794 9.12604 28.061 9.26803C28.126 8.77658 28.2204 8.2895 28.3435 7.80943C28.535 7.36821 28.7494 6.93736 28.9856 6.51863C29.1397 6.17657 29.4544 5.76996 29.3709 5.4989C29.2874 5.22783 28.7737 5.11813 28.4655 4.9116C27.9577 4.6568 27.4973 4.31624 27.1042 3.90479C26.4621 3.0335 25.8199 2.89797 25.4475 3.82088C25.3511 4.17402 25.1343 4.48189 24.835 4.69069C24.5357 4.8995 24.173 4.99597 23.8101 4.96325C22.9175 5.01488 22.6735 5.72479 23.3028 6.30564C23.6255 6.52076 23.8652 6.84046 23.982 7.2115C24.0988 7.58254 24.0857 7.98258 23.9449 8.34511C23.7009 9.16477 24.2595 9.66815 25.1842 9.24865C25.5324 9.05808 25.8691 8.84689 26.1924 8.61617ZM26.1924 27.636C26.3507 27.7524 26.5207 27.8519 26.6997 27.9329C27.1813 28.0619 27.6628 28.1652 28.1444 28.2814C28.1843 27.8249 28.2573 27.3719 28.3627 26.926C28.5268 26.4636 28.722 26.0129 28.9471 25.5772C29.1012 25.2351 29.4865 24.7704 29.3773 24.5833C29.2039 24.2735 28.7352 24.1638 28.3627 23.9379C27.9903 23.712 27.5087 23.3312 27.0785 23.002C26.7767 22.7632 26.4364 22.2469 26.2437 22.2857C25.8906 22.3502 25.6016 22.8084 25.2934 23.0601C24.9852 23.3118 24.4394 23.6603 24.0091 23.9379C23.6945 24.1379 23.1808 24.2283 23.0845 24.4929C22.9882 24.7575 23.3092 25.1383 23.4312 25.5256C23.611 26.0677 23.7844 26.6098 23.9385 27.1584C24.0413 27.5133 23.9899 28.0878 24.1953 28.1975C24.5877 28.3138 25.0071 28.2979 25.3897 28.1523C25.682 28.0263 25.9512 27.8517 26.186 27.636H26.1924ZM14.0562 17.0902C14.0947 16.8966 14.0562 17.0386 14.0562 17.1806C14.0562 17.7034 14.0562 18.2261 14.0947 18.7489C14.5902 18.6453 15.0923 18.5763 15.5973 18.5424C16.0851 18.5398 16.5697 18.6228 17.0292 18.7876C17.986 19.1361 18.6217 18.7489 18.3584 17.7873C18.2301 17.4738 18.2164 17.1248 18.3198 16.8022C18.4233 16.4796 18.6372 16.2044 18.9235 16.0253C19.7069 15.3799 19.4629 14.5409 18.4804 14.4441C18.1462 14.4631 17.8147 14.3744 17.5341 14.191C17.2535 14.0076 17.0384 13.7391 16.92 13.4244C16.4705 12.4434 15.8284 12.566 15.2955 13.5018C15.0908 13.8515 14.807 14.1478 14.4671 14.3667C13.9927 14.6406 13.5016 14.8841 12.9966 15.0959L14.0562 17.0902ZM6.20293 27.6876C6.34276 27.7866 6.49103 27.873 6.646 27.9458C7.13402 28.0942 7.62205 28.2233 8.11007 28.3588C8.15805 27.8608 8.24176 27.3668 8.36051 26.8809C8.54762 26.4376 8.76208 26.0065 9.00264 25.5901C9.15032 25.248 9.45212 24.835 9.36222 24.5575C9.27233 24.2799 8.76503 24.196 8.4568 23.996C8.00731 23.7184 7.56425 23.428 7.17255 23.1118C6.78085 22.7955 6.58181 22.4147 6.22864 22.3308C6.02958 22.2857 5.72135 22.8213 5.41955 23.0472C4.97007 23.3828 4.4949 23.6926 4.01972 24.0024C3.75003 24.1767 3.24916 24.2799 3.21064 24.4865C3.17939 24.6698 3.19097 24.8579 3.24446 25.036C3.29795 25.2141 3.39187 25.3773 3.51884 25.5126C3.82057 25.6817 4.04495 25.9622 4.14443 26.2948C4.24392 26.6273 4.2107 26.9856 4.05182 27.2939C4.01688 27.4773 4.02667 27.6664 4.08035 27.8451C4.13403 28.0239 4.22998 28.1868 4.36003 28.3201C4.57835 28.4815 5.06638 28.3201 5.41313 28.2362C5.69889 28.0755 5.9641 27.8805 6.20293 27.6553V27.6876ZM16.1238 27.6876C16.2701 27.7943 16.4273 27.8852 16.5926 27.9587C17.0742 28.1007 17.5622 28.2168 18.0502 28.3459C18.0806 27.8436 18.1536 27.3449 18.2685 26.8551C18.4573 26.4125 18.6717 25.9815 18.9107 25.5643C19.1088 25.2477 19.2237 24.8857 19.2445 24.5123C19.2445 24.3057 18.7244 24.0024 18.4612 24.0282C17.6071 24.1057 17.2539 23.6926 16.9265 22.9633C16.4962 21.9952 15.8092 21.9565 15.3661 22.9633C15.2757 23.2901 15.0766 23.576 14.8021 23.7733C14.5275 23.9706 14.194 24.0674 13.8571 24.0476C12.8682 24.0476 12.5728 24.8285 13.3049 25.4287C14.0369 26.0289 14.0305 26.6356 13.8956 27.4747C13.748 28.4169 14.2681 28.7654 15.1799 28.3137C15.4817 28.0942 15.7642 27.8812 16.1238 27.6553V27.6876Z" fill="#495AEF"/>
<path d="M6.90929 14.1278L13.7158 7.16403C13.9149 8.04177 13.902 9.02921 14.2359 9.16474C14.724 9.37127 15.4624 8.9647 16.3807 8.75818C16.5141 8.88017 16.6716 8.97252 16.843 9.02923C17.2347 9.1454 17.7869 9.35839 18.0245 9.19058C18.2621 9.02278 18.2621 8.42901 18.3456 8.01596C18.4291 7.6029 18.3456 7.03496 18.6217 6.72517C19.6684 5.48601 19.6234 5.20204 17.8704 4.59537C22.537 1.85202 27.7921 0.278083 33.1916 0.0065918V33.0831H0C0.584336 30.2628 1.05308 27.565 1.7209 24.9253C2.09975 23.428 2.92167 22.0469 3.32621 20.5625C3.73075 19.078 4.95721 18.8457 6.00387 18.31C6.22862 18.1939 6.646 18.594 7.04412 18.6714C7.44223 18.7489 7.90458 18.8715 8.14217 18.6714C8.37976 18.4714 8.37978 17.9873 8.44399 17.6195C8.47061 17.1848 8.53288 16.753 8.63019 16.3287C8.84553 15.8643 9.09671 15.4176 9.38147 14.9927C8.88061 14.7668 8.37977 14.5409 7.87249 14.3473C7.55547 14.2572 7.23396 14.184 6.90929 14.1278ZM27.8683 19.22C28.1123 18.6327 28.5104 18.1745 28.4077 17.8131C28.2472 17.0515 28.2343 16.5223 28.9599 15.9995C29.0981 15.8782 29.2047 15.7249 29.2708 15.5528C29.3368 15.3808 29.3601 15.1952 29.3388 15.0121C29.2296 14.7216 28.7416 14.5861 28.4334 14.3667C27.9315 14.0993 27.4708 13.7601 27.0657 13.3598C26.4878 12.6112 25.8649 12.4563 25.4667 13.3147C25.3639 13.6363 25.1613 13.9163 24.8886 14.1137C24.6159 14.3112 24.2874 14.4156 23.9513 14.4118C22.9304 14.4957 22.6671 15.2702 23.412 15.935C23.6994 16.1243 23.9135 16.407 24.0187 16.7359C24.1238 17.0647 24.1137 17.4199 23.9899 17.7421C23.9064 18.0196 24.7476 18.8715 24.7797 18.8521C25.7557 18.2197 26.6868 18.1809 27.8683 19.22ZM26.1924 8.61617C26.3247 8.69978 26.4645 8.77108 26.6098 8.82916C27.0913 8.98406 27.5794 9.12604 28.061 9.26803C28.126 8.77658 28.2204 8.2895 28.3435 7.80943C28.535 7.36821 28.7494 6.93736 28.9856 6.51863C29.1397 6.17657 29.4544 5.76996 29.3709 5.4989C29.2874 5.22783 28.7737 5.11813 28.4655 4.9116C27.9577 4.6568 27.4973 4.31624 27.1042 3.90479C26.4621 3.0335 25.8199 2.89797 25.4475 3.82088C25.3511 4.17402 25.1343 4.48189 24.835 4.69069C24.5357 4.8995 24.173 4.99597 23.8101 4.96325C22.9175 5.01488 22.6735 5.72479 23.3028 6.30564C23.6255 6.52076 23.8652 6.84046 23.982 7.2115C24.0988 7.58254 24.0857 7.98258 23.9449 8.34511C23.7009 9.16477 24.2595 9.66815 25.1842 9.24865C25.5324 9.05808 25.8691 8.84689 26.1924 8.61617ZM26.1924 27.636C26.3507 27.7524 26.5207 27.8519 26.6997 27.9329C27.1813 28.0619 27.6628 28.1652 28.1444 28.2814C28.1843 27.8249 28.2573 27.3719 28.3627 26.926C28.5268 26.4636 28.722 26.0129 28.9471 25.5772C29.1012 25.2351 29.4865 24.7704 29.3773 24.5833C29.2039 24.2735 28.7352 24.1638 28.3627 23.9379C27.9903 23.712 27.5087 23.3312 27.0785 23.002C26.7767 22.7632 26.4364 22.2469 26.2437 22.2857C25.8906 22.3502 25.6016 22.8084 25.2934 23.0601C24.9852 23.3118 24.4394 23.6603 24.0091 23.9379C23.6945 24.1379 23.1808 24.2283 23.0845 24.4929C22.9882 24.7575 23.3092 25.1383 23.4312 25.5256C23.611 26.0677 23.7844 26.6098 23.9385 27.1584C24.0413 27.5133 23.9899 28.0878 24.1953 28.1975C24.5877 28.3138 25.0071 28.2979 25.3897 28.1523C25.682 28.0263 25.9512 27.8517 26.186 27.636H26.1924ZM14.0562 17.0902C14.0947 16.8966 14.0562 17.0386 14.0562 17.1806C14.0562 17.7034 14.0562 18.2261 14.0947 18.7489C14.5902 18.6453 15.0923 18.5763 15.5973 18.5424C16.0851 18.5398 16.5697 18.6228 17.0292 18.7876C17.986 19.1361 18.6217 18.7489 18.3584 17.7873C18.2301 17.4738 18.2164 17.1248 18.3198 16.8022C18.4233 16.4796 18.6372 16.2044 18.9235 16.0253C19.7069 15.3799 19.4629 14.5409 18.4804 14.4441C18.1462 14.4631 17.8147 14.3744 17.5341 14.191C17.2535 14.0076 17.0384 13.7391 16.92 13.4244C16.4705 12.4434 15.8284 12.566 15.2955 13.5018C15.0908 13.8515 14.807 14.1478 14.4671 14.3667C13.9927 14.6406 13.5016 14.8841 12.9966 15.0959L14.0562 17.0902ZM6.20293 27.6876C6.34276 27.7866 6.49103 27.873 6.646 27.9458C7.13402 28.0942 7.62205 28.2233 8.11007 28.3588C8.15805 27.8608 8.24176 27.3668 8.36051 26.8809C8.54762 26.4376 8.76208 26.0065 9.00264 25.5901C9.15032 25.248 9.45212 24.835 9.36222 24.5575C9.27233 24.2799 8.76503 24.196 8.4568 23.996C8.00731 23.7184 7.56425 23.428 7.17255 23.1118C6.78085 22.7955 6.58181 22.4147 6.22864 22.3308C6.02958 22.2857 5.72135 22.8213 5.41955 23.0472C4.97007 23.3828 4.4949 23.6926 4.01972 24.0024C3.75003 24.1767 3.24916 24.2799 3.21064 24.4865C3.17939 24.6698 3.19097 24.8579 3.24446 25.036C3.29795 25.2141 3.39187 25.3773 3.51884 25.5126C3.82057 25.6817 4.04495 25.9622 4.14443 26.2948C4.24392 26.6273 4.2107 26.9856 4.05182 27.2939C4.01688 27.4773 4.02667 27.6664 4.08035 27.8451C4.13403 28.0239 4.22998 28.1868 4.36003 28.3201C4.57835 28.4815 5.06638 28.3201 5.41313 28.2362C5.69889 28.0755 5.9641 27.8805 6.20293 27.6553V27.6876ZM16.1238 27.6876C16.2701 27.7943 16.4273 27.8852 16.5926 27.9587C17.0742 28.1007 17.5622 28.2168 18.0502 28.3459C18.0806 27.8436 18.1536 27.3449 18.2685 26.8551C18.4573 26.4125 18.6717 25.9815 18.9107 25.5643C19.1088 25.2477 19.2237 24.8857 19.2445 24.5123C19.2445 24.3057 18.7244 24.0024 18.4612 24.0282C17.6071 24.1057 17.2539 23.6926 16.9265 22.9633C16.4962 21.9952 15.8092 21.9565 15.3661 22.9633C15.2757 23.2901 15.0766 23.576 14.8021 23.7733C14.5275 23.9706 14.194 24.0674 13.8571 24.0476C12.8682 24.0476 12.5728 24.8285 13.3049 25.4287C14.0369 26.0289 14.0305 26.6356 13.8956 27.4747C13.748 28.4169 14.2681 28.7654 15.1799 28.3137C15.4817 28.0942 15.7642 27.8812 16.1238 27.6553V27.6876Z" fill="url(#paint0_linear_2108_742)" fill-opacity="0.2"/>
<path d="M71.0001 37.8202C70.4993 40.5954 70.0434 43.1319 69.581 45.707H67.8345C46.3189 45.707 24.7991 45.707 3.27498 45.707C1.87514 45.707 1.3486 45.2681 1.14954 43.9515C0.867002 41.9379 0.50742 39.9371 0.115723 37.788L71.0001 37.8202Z" fill="#E83B3A"/>
<path d="M3.12061 50.2634H67.9048C66.6206 52.4061 65.3941 54.3101 64.2768 56.2721C63.442 57.7436 62.3183 58.2082 60.6167 58.2082C43.8443 58.1351 27.0698 58.1351 10.2932 58.2082C8.6943 58.2082 7.67328 57.75 6.88346 56.4076C5.72763 54.4133 4.49476 52.4836 3.12061 50.2634Z" fill="#E83B3A"/>
<path d="M37.8472 33.1023V25.3059H69.6132L70.9745 33.1023H37.8472Z" fill="#E83B3A"/>
<path d="M57.9132 62.7648C46.1173 73.7365 25.1134 73.7881 13.1377 62.7648H57.9132Z" fill="#E83B3A"/>
<path d="M37.8857 12.753H41.2569C48.0057 12.753 54.7416 12.753 61.5096 12.753C61.9263 12.7129 62.3457 12.793 62.7187 12.9839C63.0917 13.1748 63.4029 13.4685 63.6158 13.8308C64.9899 16.0122 66.3834 18.1872 67.9245 20.6074H37.8857V12.753Z" fill="#E83B3A"/>
<path d="M37.8857 8.12553V0C45.4949 0.490501 52.0703 3.16244 58.1898 8.12553H37.8857Z" fill="#E83B3A"/>
<path d="M27.8686 19.2199C26.687 18.1808 25.756 18.2195 24.7799 18.852C24.7478 18.852 23.9066 18.0195 23.9901 17.742C24.1139 17.4197 24.1241 17.0646 24.0189 16.7357C23.9137 16.4069 23.6996 16.1242 23.4122 15.9349C22.6673 15.2895 22.9306 14.4956 23.9516 14.4117C24.2876 14.4155 24.6161 14.3111 24.8888 14.1136C25.1615 13.9162 25.3641 13.6362 25.467 13.3146C25.8651 12.4562 26.488 12.611 27.0659 13.3597C27.471 13.76 27.9317 14.0992 28.4336 14.3666C28.7419 14.586 29.2299 14.7215 29.339 15.012C29.3603 15.1951 29.337 15.3807 29.271 15.5527C29.205 15.7248 29.0983 15.8781 28.9601 15.9994C28.2345 16.4899 28.2474 17.0514 28.4079 17.813C28.485 18.1744 28.1126 18.6326 27.8686 19.2199Z" fill="white"/>
<path d="M26.1925 8.61608C25.8663 8.836 25.5275 9.03641 25.1779 9.21629C24.2533 9.6358 23.6946 9.13241 23.9386 8.31276C24.0794 7.95023 24.0925 7.55014 23.9757 7.1791C23.8588 6.80806 23.6192 6.48841 23.2965 6.27329C22.6544 5.69243 22.9112 4.98249 23.8038 4.93085C24.1666 4.96358 24.5294 4.86711 24.8287 4.6583C25.128 4.4495 25.3448 4.14166 25.4412 3.78853C25.8008 2.86562 26.4686 3.00115 27.0979 3.87244C27.491 4.28389 27.9514 4.62444 28.4592 4.87925C28.7674 5.08578 29.2811 5.20193 29.3646 5.46654C29.448 5.73116 29.1334 6.11195 28.9793 6.48628C28.743 6.90501 28.5287 7.33586 28.3372 7.77707C28.214 8.25715 28.1197 8.74423 28.0546 9.23567C27.5731 9.09369 27.085 8.9517 26.6034 8.79681C26.4615 8.74873 26.3239 8.68825 26.1925 8.61608Z" fill="white"/>
<path d="M26.1861 27.6359C25.9533 27.851 25.6863 28.0255 25.3962 28.1522C25.0137 28.2978 24.5942 28.3137 24.2019 28.1974C23.9964 28.0876 24.0477 27.5132 23.945 27.1582C23.7909 26.6097 23.6175 26.0675 23.4377 25.5254C23.3157 25.1704 22.9947 24.7574 23.091 24.4928C23.1873 24.2281 23.701 24.1378 24.0157 23.9377C24.4587 23.6602 24.9018 23.3762 25.2999 23.06C25.698 22.7437 25.8971 22.35 26.2503 22.2855C26.475 22.2468 26.7832 22.7631 27.085 23.0019C27.4896 23.331 27.9134 23.6473 28.3693 23.9377C28.8252 24.2282 29.2105 24.2733 29.3838 24.5831C29.493 24.7703 29.1077 25.2285 28.9536 25.5771C28.7286 26.0128 28.5333 26.4635 28.3693 26.9259C28.2638 27.3717 28.1908 27.8247 28.151 28.2813C27.6694 28.1651 27.1878 28.0618 26.7062 27.9327C26.5228 27.8526 26.3485 27.7531 26.1861 27.6359Z" fill="white"/>
<path d="M14.0563 17.0901L12.9839 15.0958C13.4888 14.884 13.9799 14.6404 14.4544 14.3665C14.7943 14.1477 15.078 13.8514 15.2827 13.5017C15.8157 12.5658 16.4578 12.4432 16.9073 13.4242C17.0256 13.7389 17.2408 14.0075 17.5214 14.1909C17.802 14.3743 18.1335 14.4629 18.4677 14.444C19.4501 14.5408 19.6941 15.3668 18.9107 16.0252C18.6244 16.2042 18.4105 16.4795 18.3071 16.8021C18.2036 17.1247 18.2173 17.4737 18.3457 17.7871C18.6089 18.7488 17.9732 19.136 17.0165 18.7875C16.557 18.6226 16.0724 18.5396 15.5845 18.5422C15.0795 18.5761 14.5775 18.6451 14.0819 18.7487C14.0819 18.226 14.0819 17.7032 14.0434 17.1804C14.0434 17.0062 14.1269 16.8642 14.0563 17.0901Z" fill="white"/>
<path d="M6.20299 27.6552C5.94299 27.8639 5.65833 28.0395 5.35542 28.1779C5.00867 28.2812 4.52064 28.4232 4.30232 28.2618C4.17227 28.1286 4.07628 27.9656 4.0226 27.7869C3.96892 27.6081 3.95913 27.419 3.99407 27.2356C4.15295 26.9273 4.18621 26.569 4.08672 26.2365C3.98723 25.904 3.76286 25.6235 3.46113 25.4544C3.33416 25.319 3.2402 25.1559 3.18671 24.9778C3.13322 24.7997 3.12164 24.6115 3.15288 24.4282C3.19141 24.2217 3.69228 24.1184 3.96197 23.9441C4.43715 23.6344 4.91231 23.2988 5.3618 22.989C5.6636 22.7631 5.97183 22.2274 6.17089 22.2726C6.52406 22.3565 6.81304 22.8018 7.11484 23.0535C7.41664 23.3052 7.97529 23.6602 8.39909 23.9377C8.70731 24.1378 9.221 24.241 9.30447 24.4992C9.38795 24.7573 9.09257 25.1898 8.94488 25.5318C8.70433 25.9482 8.48987 26.3793 8.30276 26.8226C8.184 27.3086 8.1003 27.8025 8.05232 28.3006C7.5643 28.165 7.07631 28.0359 6.58829 27.8875C6.45408 27.8202 6.32525 27.7425 6.20299 27.6552Z" fill="white"/>
<path d="M16.1239 27.6551C15.7643 27.881 15.4818 28.094 15.1735 28.2489C14.2681 28.7136 13.748 28.3522 13.8893 27.4099C14.0241 26.5709 14.0498 25.9965 13.2985 25.364C12.5472 24.7315 12.8619 23.9958 13.8508 23.9828C14.1877 24.0026 14.5212 23.9058 14.7957 23.7085C15.0703 23.5112 15.2693 23.2254 15.3597 22.8986C15.8028 21.9047 16.4899 21.9434 16.9201 22.8986C17.2476 23.6279 17.6008 24.041 18.4548 23.9635C18.7181 23.9635 19.2125 24.241 19.2382 24.4476C19.2174 24.821 19.1025 25.183 18.9043 25.4995C18.6653 25.9168 18.4509 26.3478 18.2622 26.7903C18.1473 27.2801 18.0742 27.7789 18.0438 28.2812C17.5558 28.1521 17.0678 28.0359 16.5862 27.8939C16.4245 27.8303 16.2695 27.7503 16.1239 27.6551Z" fill="white"/>
</g>
<defs>
<linearGradient id="paint0_linear_2108_742" x1="16.5958" y1="0.00659418" x2="32.6211" y2="3.33611" gradientUnits="userSpaceOnUse">
<stop stop-opacity="0.58"/>
<stop offset="1" stop-opacity="0"/>
</linearGradient>
<clipPath id="clip0_2108_742">
<rect width="71" height="71" fill="white"/>
</clipPath>
</defs>
</svg>
