<svg width="35" height="35" viewBox="0 0 35 35" fill="none" xmlns="http://www.w3.org/2000/svg">
<circle cx="17.2083" cy="17.2083" r="17.2083" fill="#495AEF"/>
<circle cx="17.2083" cy="17.2083" r="17.2083" fill="url(#paint0_linear_2104_618)" fill-opacity="0.2"/>
<path fill-rule="evenodd" clip-rule="evenodd" d="M20.3219 22.1933V22.192L20.3339 22.1633L22.3332 12.0833V12.0513C22.3332 11.8 22.2399 11.5806 22.0386 11.4493C21.8619 11.334 21.6586 11.326 21.5159 11.3366C21.3831 11.3487 21.2521 11.3755 21.1252 11.4166C21.0711 11.4341 21.0178 11.4537 20.9652 11.4753L20.9566 11.4786L9.8099 15.8513L9.80657 15.8526C9.77268 15.8642 9.73951 15.8778 9.70723 15.8933C9.62796 15.9289 9.5519 15.9713 9.4799 16.02C9.33657 16.1186 9.0639 16.3506 9.1099 16.7186C9.1479 17.024 9.3579 17.2173 9.4999 17.318C9.58372 17.3767 9.67383 17.4259 9.76857 17.4646L9.7899 17.474L9.79657 17.476L9.80123 17.478L11.7519 18.1346C11.7452 18.2566 11.7572 18.3813 11.7899 18.5046L12.7666 22.2106C12.8199 22.4127 12.9352 22.5929 13.0962 22.726C13.2573 22.8591 13.456 22.9385 13.6644 22.9529C13.8729 22.9673 14.0806 22.9161 14.2584 22.8064C14.4362 22.6967 14.5752 22.5341 14.6559 22.3413L16.1812 20.7106L18.8006 22.7186L18.8379 22.7346C19.0759 22.8386 19.2979 22.8713 19.5012 22.844C19.7046 22.816 19.8659 22.7306 19.9872 22.634C20.1276 22.5202 20.2394 22.3752 20.3139 22.2106L20.3192 22.1993L20.3212 22.1953L20.3219 22.1933ZM12.7566 18.25C12.7458 18.2089 12.7483 18.1654 12.7639 18.1258C12.7795 18.0862 12.8073 18.0527 12.8432 18.03L19.4572 13.83C19.4572 13.83 19.8466 13.5933 19.8326 13.83C19.8326 13.83 19.9019 13.8713 19.6932 14.0653C19.4959 14.25 14.9792 18.6106 14.5219 19.052C14.4965 19.0767 14.4787 19.1081 14.4706 19.1426L13.7332 21.956L12.7566 18.2493V18.25Z" fill="white"/>
<defs>
<linearGradient id="paint0_linear_2104_618" x1="17.2083" y1="2.47748e-06" x2="33.8299" y2="3.44143" gradientUnits="userSpaceOnUse">
<stop stop-opacity="0.58"/>
<stop offset="1" stop-opacity="0"/>
</linearGradient>
</defs>
</svg>
