<svg width="22" height="26" viewBox="0 0 22 26" fill="none" xmlns="http://www.w3.org/2000/svg">
<g clip-path="url(#clip0_10_293)">
<path d="M1.53713 20.7772C1.02366 20.7894 0.65944 20.3573 0.833197 19.9195C1.30434 18.7344 1.81113 17.5638 2.32126 16.3954C2.41227 16.2347 2.5315 16.0917 2.67323 15.9733C5.89812 12.7439 9.12374 9.51718 12.3501 6.29304C12.9182 5.72499 13.2089 5.72833 13.7858 6.30418C14.3238 6.84104 14.8651 7.37567 15.3964 7.91922C15.8141 8.34581 15.8241 8.69889 15.4042 9.12103C12.1162 12.4157 8.82338 15.7063 5.52573 18.9928C5.35006 19.1562 5.14629 19.2863 4.92426 19.3771C3.92182 19.8126 2.91938 20.2314 1.91138 20.6524C1.77549 20.7092 1.63181 20.746 1.53713 20.7772Z" fill="white"/>
<path d="M21.6943 2.3535C21.486 2.73554 21.3668 3.12538 21.1151 3.38935C20.1193 4.43523 19.0879 5.44769 18.0588 6.46239C17.6645 6.85 17.3103 6.83663 16.9048 6.44011C16.3108 5.85647 15.7216 5.26688 15.1372 4.67136C14.7117 4.23586 14.7173 3.93178 15.1584 3.48625C16.1497 2.48381 17.1421 1.48806 18.1456 0.501212C18.8195 -0.167081 19.6304 -0.167082 20.3131 0.480049C20.6084 0.733693 20.8816 1.01204 21.1296 1.31207C21.3523 1.61169 21.4927 1.97146 21.6943 2.3535Z" fill="white"/>
<path d="M21.027 22.9024C20.9156 23.0071 20.744 23.3156 20.5113 23.3679C20.1404 23.4515 19.9722 23.1318 19.9276 22.7821C19.8875 22.4713 19.873 22.1539 19.804 21.8487C19.501 20.4909 18.5509 19.8716 17.1742 20.1111C15.3364 20.4297 13.7815 21.3541 12.289 22.4034C10.6317 23.5684 8.91637 24.6221 6.96607 25.2336C5.87898 25.5744 4.77518 25.7738 3.6246 25.531C2.15659 25.2191 0.935836 24.0106 0.691909 22.5337C0.659608 22.3365 0.86121 22.0057 1.04722 21.9021C1.1586 21.8375 1.45488 22.077 1.66205 22.1906C1.70103 22.2118 1.71551 22.2864 1.72999 22.3399C2.3192 24.3993 3.86853 24.8248 5.69631 24.4561C7.81257 24.0351 9.62699 22.958 11.3657 21.7418C12.8582 20.6981 14.3852 19.7269 16.1674 19.2457C16.4518 19.1638 16.7418 19.1028 17.035 19.063C19.9343 18.7311 20.8309 20.5422 21.027 22.9024Z" fill="white"/>
</g>
<defs>
<clipPath id="clip0_10_293">
<rect width="21" height="25.6357" fill="white" transform="translate(0.694092)"/>
</clipPath>
</defs>
</svg>
