<svg width="91" height="99" viewBox="0 0 91 99" fill="none" xmlns="http://www.w3.org/2000/svg">
<g id="portfolio" clip-path="url(#clip0_2108_662)">
<g id="Vector">
<path d="M45.475 39.2061H58.9467V29.0925H84.4307V31.0307C84.4307 40.2101 84.4307 49.3843 84.4307 58.5534C84.4307 61.2669 84.1166 61.546 81.4506 61.546H23.0286C20.4009 61.546 20.194 61.3366 20.1902 58.6619C20.1902 49.4179 20.1902 40.1752 20.1902 30.9338C20.1902 30.3601 20.2362 29.7903 20.2668 29.1042H45.4712L45.475 39.2061Z" fill="#495AEF"/>
<path d="M45.475 39.2061H58.9467V29.0925H84.4307V31.0307C84.4307 40.2101 84.4307 49.3843 84.4307 58.5534C84.4307 61.2669 84.1166 61.546 81.4506 61.546H23.0286C20.4009 61.546 20.194 61.3366 20.1902 58.6619C20.1902 49.4179 20.1902 40.1752 20.1902 30.9338C20.1902 30.3601 20.2362 29.7903 20.2668 29.1042H45.4712L45.475 39.2061Z" fill="url(#paint0_linear_2108_662)" fill-opacity="0.2"/>
</g>
<path id="Vector_2" d="M33.6888 80.3737C33.5624 81.5367 33.4628 82.4748 33.3479 83.533C33.674 83.7129 34.0199 83.8534 34.3783 83.9517C41.6907 85.01 48.98 86.3434 56.3268 86.9559C59.4448 87.2156 62.7007 86.0295 65.8684 85.3743C71.4762 84.2114 77.0572 82.9244 82.6726 81.7964C83.7815 81.5631 84.9316 81.6327 86.0051 81.998C87.3458 82.5097 87.9855 83.7501 87.7824 85.2968C87.5526 87.0373 86.4073 87.8281 84.8636 88.1847C79.7819 89.3632 74.6964 90.5339 69.607 91.6968C59.1218 94.0872 48.6365 96.4738 38.1513 98.8565C37.6159 99.0143 37.0507 99.0382 36.5042 98.9263C30.1725 96.9881 23.8637 95.0499 17.5358 93.0652C17.3022 92.9915 17.0877 92.8713 16.7927 92.7434C16.7927 87.6769 16.7659 82.6415 16.8349 77.6254C16.8863 77.3451 17.0036 77.0815 17.177 76.8568C17.3503 76.6321 17.5746 76.453 17.8308 76.3345C22.7414 74.7839 27.5793 73.0706 32.9074 73.4931C36.8413 73.8071 40.8173 73.5474 44.7818 73.5629C47.2371 73.5629 48.6123 74.7258 48.6697 76.8268C48.7272 79.0015 47.3444 80.3156 44.8201 80.3776C41.8209 80.4319 38.8216 80.3776 35.8224 80.3776L33.6888 80.3737Z" fill="#E83B3A"/>
<g id="Vector_3">
<path d="M62.4058 16.9477H75.6017C77.8386 16.9477 80.0718 16.9477 82.305 16.9477C83.6188 16.9477 84.3811 17.5369 84.404 18.8859C84.4347 21.0102 84.404 23.15 84.404 25.3712H20.2287C20.2287 23.0647 20.1789 20.8203 20.2287 18.5797C20.2708 17.0756 21.4008 16.9438 22.5576 16.9438H42.0929C42.0929 14.7614 42.0929 12.7147 42.0929 10.6718C42.1274 7.07833 44.1154 5.00444 47.6547 4.95017C50.7191 4.90365 53.7834 4.90365 56.8478 4.95017C60.4369 5.00056 62.3713 7.00855 62.3904 10.633C62.4134 12.6332 62.4058 14.6335 62.4058 16.9477ZM58.9813 16.8508C58.9813 14.5249 59.1192 12.265 58.8932 10.0515C58.832 9.44295 57.7096 8.50097 57.0355 8.47384C53.8572 8.30328 50.6721 8.30328 47.4938 8.47384C46.8158 8.50873 45.6935 9.45457 45.6284 10.0709C45.4024 12.2805 45.5403 14.5327 45.5403 16.8508H58.9813Z" fill="#495AEF"/>
<path d="M62.4058 16.9477H75.6017C77.8386 16.9477 80.0718 16.9477 82.305 16.9477C83.6188 16.9477 84.3811 17.5369 84.404 18.8859C84.4347 21.0102 84.404 23.15 84.404 25.3712H20.2287C20.2287 23.0647 20.1789 20.8203 20.2287 18.5797C20.2708 17.0756 21.4008 16.9438 22.5576 16.9438H42.0929C42.0929 14.7614 42.0929 12.7147 42.0929 10.6718C42.1274 7.07833 44.1154 5.00444 47.6547 4.95017C50.7191 4.90365 53.7834 4.90365 56.8478 4.95017C60.4369 5.00056 62.3713 7.00855 62.3904 10.633C62.4134 12.6332 62.4058 14.6335 62.4058 16.9477ZM58.9813 16.8508C58.9813 14.5249 59.1192 12.265 58.8932 10.0515C58.832 9.44295 57.7096 8.50097 57.0355 8.47384C53.8572 8.30328 50.6721 8.30328 47.4938 8.47384C46.8158 8.50873 45.6935 9.45457 45.6284 10.0709C45.4024 12.2805 45.5403 14.5327 45.5403 16.8508H58.9813Z" fill="url(#paint1_linear_2108_662)" fill-opacity="0.2"/>
</g>
<path id="Vector_4" d="M0.0343797 73.6366H6.54614V87.0645H9.93608V73.6327H13.2264V97.3874H0.019043L0.0343797 73.6366ZM9.88629 90.7161H6.7185V93.9568H9.88629V90.7161Z" fill="#E83B3A"/>
<g id="Vector_5">
<path d="M49.0144 35.7484V29.1042H55.5262V35.7484H49.0144Z" fill="#495AEF"/>
<path d="M49.0144 35.7484V29.1042H55.5262V35.7484H49.0144Z" fill="url(#paint2_linear_2108_662)" fill-opacity="0.2"/>
</g>
<path id="Vector_6" d="M87.6446 6.82639V9.9973H84.5802C84.5036 9.01269 84.427 8.01645 84.3351 6.86128L81.2324 6.67133V3.42677L84.3351 3.23295C84.4002 2.17081 84.4653 1.1513 84.5343 0H87.6446V3.388L87.7135 3.3221H84.5802V6.6442L87.7097 6.86516L87.6446 6.82639Z" fill="#E83B3A"/>
<g id="Vector_7">
<path d="M60.8927 71.6169V68.5817H64.0069C64.0796 69.5159 64.1562 70.5005 64.2405 71.6247L67.3394 71.9038V75.0785H64.3133L64.3401 75.1212C64.206 74.0358 64.072 72.9465 63.9571 71.8999L60.8621 71.5859L60.8927 71.6169Z" fill="#495AEF"/>
<path d="M60.8927 71.6169V68.5817H64.0069C64.0796 69.5159 64.1562 70.5005 64.2405 71.6247L67.3394 71.9038V75.0785H64.3133L64.3401 75.1212C64.206 74.0358 64.072 72.9465 63.9571 71.8999L60.8621 71.5859L60.8927 71.6169Z" fill="url(#paint3_linear_2108_662)" fill-opacity="0.2"/>
</g>
<path id="Vector_8" d="M87.6445 3.38805H91.0077V6.6675L87.656 6.82643L87.7097 6.86907C87.7097 5.68805 87.7097 4.50575 87.7097 3.32214L87.6445 3.38805Z" fill="#E83B3A"/>
<g id="Vector_9">
<path d="M60.9118 75.0592H57.4912V71.9154L60.8926 71.6169L60.8467 71.5859C60.8467 72.7682 60.8467 73.9506 60.8467 75.129L60.9118 75.0592Z" fill="#495AEF"/>
<path d="M60.9118 75.0592H57.4912V71.9154L60.8926 71.6169L60.8467 71.5859C60.8467 72.7682 60.8467 73.9506 60.8467 75.129L60.9118 75.0592Z" fill="url(#paint4_linear_2108_662)" fill-opacity="0.2"/>
</g>
<g id="Vector_10">
<path d="M64.3132 75.0786C64.206 76.1989 64.0987 77.323 63.9838 78.5131H60.9195V75.0592L60.8467 75.129H64.3477L64.3132 75.0786Z" fill="#495AEF"/>
<path d="M64.3132 75.0786C64.206 76.1989 64.0987 77.323 63.9838 78.5131H60.9195V75.0592L60.8467 75.129H64.3477L64.3132 75.0786Z" fill="url(#paint5_linear_2108_662)" fill-opacity="0.2"/>
</g>
<g id="Vector_11">
<path d="M3.44354 39.4813C3.36693 38.3572 3.29032 37.233 3.20605 35.9926H6.57685C6.51939 37.233 6.46577 38.3572 6.41214 39.4813L6.48492 39.3961H3.3746L3.44354 39.4813Z" fill="#495AEF"/>
<path d="M3.44354 39.4813C3.36693 38.3572 3.29032 37.233 3.20605 35.9926H6.57685C6.51939 37.233 6.46577 38.3572 6.41214 39.4813L6.48492 39.3961H3.3746L3.44354 39.4813Z" fill="url(#paint6_linear_2108_662)" fill-opacity="0.2"/>
</g>
<g id="Vector_12">
<path d="M3.45497 42.4779L0.00756836 42.6523V39.2411L3.45497 39.4814L3.38219 39.3961V42.5477L3.45497 42.4779Z" fill="#495AEF"/>
<path d="M3.45497 42.4779L0.00756836 42.6523V39.2411L3.45497 39.4814L3.38219 39.3961V42.5477L3.45497 42.4779Z" fill="url(#paint7_linear_2108_662)" fill-opacity="0.2"/>
</g>
<g id="Vector_13">
<path d="M6.41214 39.4814L9.83657 39.2411V42.6523L6.38916 42.474L6.46961 42.5477V39.3961L6.41214 39.4814Z" fill="#495AEF"/>
<path d="M6.41214 39.4814L9.83657 39.2411V42.6523L6.38916 42.474L6.46961 42.5477V39.3961L6.41214 39.4814Z" fill="url(#paint8_linear_2108_662)" fill-opacity="0.2"/>
</g>
<g id="Vector_14">
<path d="M6.40457 42.474C6.46203 43.5943 6.51949 44.7185 6.58078 45.9434H3.19849C3.29042 44.7068 3.3747 43.5904 3.45514 42.4779L3.37086 42.5477H6.48502L6.40457 42.474Z" fill="#495AEF"/>
<path d="M6.40457 42.474C6.46203 43.5943 6.51949 44.7185 6.58078 45.9434H3.19849C3.29042 44.7068 3.3747 43.5904 3.45514 42.4779L3.37086 42.5477H6.48502L6.40457 42.474Z" fill="url(#paint9_linear_2108_662)" fill-opacity="0.2"/>
</g>
</g>
<defs>
<linearGradient id="paint0_linear_2108_662" x1="52.3104" y1="29.0925" x2="80.0124" y2="40.4459" gradientUnits="userSpaceOnUse">
<stop stop-opacity="0.58"/>
<stop offset="1" stop-opacity="0"/>
</linearGradient>
<linearGradient id="paint1_linear_2108_662" x1="52.3121" y1="4.91528" x2="75.0487" y2="19.6922" gradientUnits="userSpaceOnUse">
<stop stop-opacity="0.58"/>
<stop offset="1" stop-opacity="0"/>
</linearGradient>
<linearGradient id="paint2_linear_2108_662" x1="52.2703" y1="29.1042" x2="55.4203" y2="29.7434" gradientUnits="userSpaceOnUse">
<stop stop-opacity="0.58"/>
<stop offset="1" stop-opacity="0"/>
</linearGradient>
<linearGradient id="paint3_linear_2108_662" x1="64.1007" y1="68.5817" x2="67.2314" y2="69.2237" gradientUnits="userSpaceOnUse">
<stop stop-opacity="0.58"/>
<stop offset="1" stop-opacity="0"/>
</linearGradient>
<linearGradient id="paint4_linear_2108_662" x1="59.2015" y1="71.5859" x2="60.8581" y2="71.9171" gradientUnits="userSpaceOnUse">
<stop stop-opacity="0.58"/>
<stop offset="1" stop-opacity="0"/>
</linearGradient>
<linearGradient id="paint5_linear_2108_662" x1="62.5972" y1="75.0592" x2="64.2861" y2="75.4137" gradientUnits="userSpaceOnUse">
<stop stop-opacity="0.58"/>
<stop offset="1" stop-opacity="0"/>
</linearGradient>
<linearGradient id="paint6_linear_2108_662" x1="4.89145" y1="35.9926" x2="6.52384" y2="36.3191" gradientUnits="userSpaceOnUse">
<stop stop-opacity="0.58"/>
<stop offset="1" stop-opacity="0"/>
</linearGradient>
<linearGradient id="paint7_linear_2108_662" x1="1.73127" y1="39.2411" x2="3.39475" y2="39.5892" gradientUnits="userSpaceOnUse">
<stop stop-opacity="0.58"/>
<stop offset="1" stop-opacity="0"/>
</linearGradient>
<linearGradient id="paint8_linear_2108_662" x1="8.11286" y1="39.2411" x2="9.77634" y2="39.5892" gradientUnits="userSpaceOnUse">
<stop stop-opacity="0.58"/>
<stop offset="1" stop-opacity="0"/>
</linearGradient>
<linearGradient id="paint9_linear_2108_662" x1="4.88963" y1="42.474" x2="6.52646" y2="42.8044" gradientUnits="userSpaceOnUse">
<stop stop-opacity="0.58"/>
<stop offset="1" stop-opacity="0"/>
</linearGradient>
<clipPath id="clip0_2108_662">
<rect width="91" height="99" fill="white"/>
</clipPath>
</defs>
</svg>
