<svg width="109" height="19" viewBox="0 0 109 19" fill="none" xmlns="http://www.w3.org/2000/svg">
<path d="M0 0H12.6897L16.697 8.92771L12.6897 19H0L5.34303 8.92771L0 0Z" fill="#E83B3A"/>
<path d="M18.4243 0H31.114L35.1213 8.92771L31.114 19H18.4243L23.7673 8.92771L18.4243 0Z" fill="#E83B3A"/>
<path d="M36.8486 0H49.5383L53.5456 8.92771L49.5383 19H36.8486L42.1917 8.92771L36.8486 0Z" fill="#E83B3A"/>
<path d="M55.2727 0H67.9624L71.9697 8.92771L67.9624 19H55.2727L60.6157 8.92771L55.2727 0Z" fill="#E83B3A"/>
<path d="M73.697 0H86.3867L90.394 8.92771L86.3867 19H73.697L79.0401 8.92771L73.697 0Z" fill="#E83B3A"/>
<path d="M92.1213 0H104.811L108.818 8.92771L104.811 19H92.1213L97.4644 8.92771L92.1213 0Z" fill="#E83B3A"/>
</svg>
